<?xml version="1.0" encoding="UTF-8"?>
<svg width="792px" height="372px" viewBox="0 0 792 372" version="1.1" xmlns="http://www.w3.org/2000/svg" xmlns:xlink="http://www.w3.org/1999/xlink">
    <!-- Generator: Sketch 63.1 (92452) - https://sketch.com -->
    <title>linear-separation</title>
    <desc>Created with Sketch.</desc>
    <g id="linear-separation" stroke="none" stroke-width="1" fill="none" fill-rule="evenodd">
        <rect fill="#FFFFFF" x="0" y="0" width="792" height="372"></rect>
        <g id="axis/general" transform="translate(407.000000, 41.000000)" stroke="#636F80" stroke-width="2">
            <polygon id="Path-6" points="0 0 0 248 336 248 336 0"></polygon>
        </g>
        <g id="axis/general-copy" transform="translate(50.000000, 41.000000)" stroke="#636F80" stroke-width="2">
            <polygon id="Path-6" points="0 0 0 248 336 248 336 0"></polygon>
        </g>
        <polygon id="Path-55" fill="#57A7EB" points="218 142 328 78 379 160"></polygon>
        <polygon id="Path-56" fill="#94F3F3" points="183 119 234 83 209 53 155 64"></polygon>
        <polygon id="Path-57" fill="#97DB9E" points="163 154 144 212 79 141 85 137 115 130"></polygon>
        <polygon id="Path-58" fill="#C873DE" points="207 186 184 235 184 250 243 250 273 275 310 235"></polygon>
        <polygon id="Path-59" fill="#97DB9E" points="422 65 458 255 488 250 534 125 591 119 630 175 649 142 616 59"></polygon>
        <polygon id="Path-60" fill="#94F3F3" points="511 253 563 175 621 212 702 186 720 241 616 268"></polygon>
        <line x1="139.5" y1="260.5" x2="260.5" y2="62.5" id="Line" stroke="#F7931E" stroke-width="2"></line>
        <line x1="72.5" y1="73.5" x2="366.5" y2="241.5" id="Line-2" stroke="#F7931E" stroke-width="2"></line>
        <polyline id="Path-61" stroke="#F7931E" stroke-width="2" points="481 275 563 146 622 186 729 154"></polyline>
        <path d="M115.896,329.144 C117.176,329.144 117.784,328.424 118.488,325.24 C118.92,323.368 119.256,321.56 119.528,319.64 L122.312,319.64 L122.312,329 L123.656,329 L123.656,318.504 L118.472,318.504 C118.152,320.808 117.768,322.888 117.256,325.08 C116.664,327.544 116.296,327.848 115.72,327.848 C115.56,327.848 115.432,327.816 115.272,327.768 L115,329.016 C115.288,329.112 115.56,329.144 115.896,329.144 Z M127.816,329 L130.584,324.616 C130.888,324.136 131.288,323.432 131.592,322.84 L131.656,322.84 C131.576,323.96 131.528,324.92 131.528,325.752 L131.528,329 L132.792,329 L132.792,321.224 L131.384,321.224 L128.6,325.624 C128.296,326.104 127.896,326.824 127.592,327.384 L127.528,327.384 C127.608,326.28 127.672,325.304 127.672,324.472 L127.672,321.224 L126.392,321.224 L126.392,329 L127.816,329 Z M136.744,329 L136.744,325.544 L140.472,325.544 L140.472,329 L141.8,329 L141.8,321.224 L140.472,321.224 L140.472,324.376 L136.744,324.376 L136.744,321.224 L135.416,321.224 L135.416,329 L136.744,329 Z M147.544,329.192 C148.616,329.192 149.448,328.872 150.12,328.392 L149.656,327.544 C149.112,327.912 148.456,328.12 147.704,328.12 C146.232,328.12 145.256,327.064 145.144,325.464 L150.376,325.464 C150.424,325.208 150.44,324.968 150.44,324.68 C150.44,322.44 149.304,321.032 147.32,321.032 C145.544,321.032 143.832,322.584 143.832,325.112 C143.832,327.688 145.464,329.192 147.544,329.192 Z M149.256,324.44 L145.144,324.44 C145.304,322.952 146.264,322.088 147.352,322.088 C148.536,322.088 149.256,322.904 149.256,324.44 Z M155.592,319.832 C157.384,319.832 158.04,318.632 158.104,317.384 L157.016,317.384 C156.984,318.296 156.648,319.048 155.592,319.048 C154.536,319.048 154.2,318.296 154.168,317.384 L153.08,317.384 C153.144,318.632 153.8,319.832 155.592,319.832 Z M153.768,329 L156.536,324.616 C156.84,324.136 157.24,323.432 157.544,322.84 L157.608,322.84 C157.528,323.96 157.48,324.92 157.48,325.752 L157.48,329 L158.744,329 L158.744,321.224 L157.336,321.224 L154.552,325.624 C154.248,326.104 153.848,326.824 153.544,327.384 L153.48,327.384 C153.56,326.28 153.624,325.304 153.624,324.472 L153.624,321.224 L152.344,321.224 L152.344,329 L153.768,329 Z M162.712,329 L162.712,325.544 L166.44,325.544 L166.44,329 L167.768,329 L167.768,321.224 L166.44,321.224 L166.44,324.376 L162.712,324.376 L162.712,321.224 L161.384,321.224 L161.384,329 L162.712,329 Z M173.4,329.192 C175.304,329.192 177.016,327.704 177.016,325.128 C177.016,322.52 175.304,321.032 173.4,321.032 C171.496,321.032 169.8,322.52 169.8,325.128 C169.8,327.704 171.496,329.192 173.4,329.192 Z M173.4,328.088 C172.072,328.088 171.176,326.904 171.176,325.128 C171.176,323.336 172.072,322.136 173.4,322.136 C174.744,322.136 175.64,323.336 175.64,325.128 C175.64,326.904 174.744,328.088 173.4,328.088 Z M183.576,332.28 L183.576,329.656 L183.544,328.296 C184.248,328.856 184.984,329.192 185.688,329.192 C187.464,329.192 189.064,327.64 189.064,325 C189.064,322.584 187.976,321.032 185.976,321.032 C185.08,321.032 184.2,321.528 183.496,322.12 L183.448,322.12 L183.336,321.224 L182.248,321.224 L182.248,332.28 L183.576,332.28 Z M185.464,328.072 C184.952,328.072 184.28,327.864 183.576,327.272 L183.576,323.208 C184.328,322.504 184.984,322.152 185.64,322.152 C187.096,322.152 187.688,323.288 187.688,325 C187.688,326.92 186.744,328.072 185.464,328.072 Z M192.696,329.192 C193.672,329.192 194.52,328.696 195.256,328.072 L195.304,328.072 L195.432,329 L196.52,329 L196.52,324.216 C196.52,322.296 195.704,321.032 193.816,321.032 C192.568,321.032 191.48,321.56 190.76,322.04 L191.272,322.936 C191.88,322.536 192.696,322.136 193.592,322.136 C194.856,322.136 195.176,323.08 195.192,324.056 C191.864,324.424 190.424,325.256 190.424,326.984 C190.424,328.392 191.4,329.192 192.696,329.192 Z M193.064,328.104 C192.312,328.104 191.72,327.768 191.72,326.904 C191.72,325.896 192.568,325.304 195.192,325 L195.192,327.112 C194.44,327.768 193.816,328.104 193.064,328.104 Z M201.192,329.192 C202.872,329.192 204.328,328.296 204.328,326.856 C204.328,325.736 203.624,325.16 202.712,324.92 L202.712,324.856 C203.528,324.536 204.008,323.88 204.008,323.128 C204.008,321.704 202.696,321.032 201.176,321.032 C200.04,321.032 199.192,321.368 198.44,321.896 L199,322.76 C199.624,322.312 200.216,322.072 201.112,322.072 C202.056,322.072 202.728,322.456 202.728,323.256 C202.728,323.992 202.104,324.456 200.856,324.456 L199.96,324.456 L199.96,325.464 L201.032,325.464 C202.328,325.464 203.032,325.896 203.032,326.744 C203.032,327.608 202.168,328.152 201.096,328.152 C200.312,328.152 199.544,327.944 198.824,327.352 L198.264,328.2 C199.176,328.952 200.12,329.192 201.192,329.192 Z M206.552,331.752 L206.552,329 L211.864,329 L211.864,331.752 L213,331.752 L213.144,328.76 L213.144,327.912 L212.008,327.912 L212.008,321.224 L207.16,321.224 L206.744,324.664 C206.44,327.16 206.088,327.688 205.656,327.912 L205.272,327.912 L205.272,328.76 L205.416,331.752 L206.552,331.752 Z M210.68,327.912 L207.08,327.912 C207.432,327.352 207.736,326.44 207.912,324.92 L208.216,322.296 L210.68,322.296 L210.68,327.912 Z M217.944,329.192 C219.016,329.192 219.848,328.872 220.52,328.392 L220.056,327.544 C219.512,327.912 218.856,328.12 218.104,328.12 C216.632,328.12 215.656,327.064 215.544,325.464 L220.776,325.464 C220.824,325.208 220.84,324.968 220.84,324.68 C220.84,322.44 219.704,321.032 217.72,321.032 C215.944,321.032 214.232,322.584 214.232,325.112 C214.232,327.688 215.864,329.192 217.944,329.192 Z M219.656,324.44 L215.544,324.44 C215.704,322.952 216.664,322.088 217.752,322.088 C218.936,322.088 219.656,322.904 219.656,324.44 Z M222.312,329.144 C223.448,329.144 224.152,328.296 224.376,326.6 C224.552,325.176 224.712,323.736 224.888,322.296 L227.288,322.296 L227.288,329 L228.616,329 L228.616,321.224 L223.832,321.224 C223.64,322.904 223.448,324.584 223.24,326.264 C223.096,327.368 222.744,327.864 222.2,327.864 C222.056,327.864 221.944,327.832 221.848,327.8 L221.592,329.016 C221.816,329.112 222.008,329.144 222.312,329.144 Z M232.664,329 L235.432,324.616 C235.736,324.136 236.136,323.432 236.44,322.84 L236.504,322.84 C236.424,323.96 236.376,324.92 236.376,325.752 L236.376,329 L237.64,329 L237.64,321.224 L236.232,321.224 L233.448,325.624 C233.144,326.104 232.744,326.824 232.44,327.384 L232.376,327.384 C232.456,326.28 232.52,325.304 232.52,324.472 L232.52,321.224 L231.24,321.224 L231.24,329 L232.664,329 Z M241.448,329 L241.448,325.48 C241.448,324.792 241.384,323.608 241.304,322.792 L241.368,322.792 C241.592,323.432 241.848,324.104 242.072,324.712 L243.528,328.264 L244.52,328.264 L245.96,324.712 C246.184,324.104 246.424,323.432 246.648,322.792 L246.712,322.792 C246.648,323.608 246.568,324.792 246.568,325.48 L246.568,329 L247.768,329 L247.768,321.224 L246.184,321.224 L244.728,324.856 C244.52,325.432 244.296,326.072 244.072,326.776 L244.008,326.776 C243.816,326.072 243.576,325.432 243.352,324.856 L241.832,321.224 L240.264,321.224 L240.264,329 L241.448,329 Z M252.808,329 C254.648,329 255.896,328.248 255.896,326.52 C255.896,324.808 254.648,324.088 252.808,324.088 L251.72,324.088 L251.72,321.224 L250.392,321.224 L250.392,329 L252.808,329 Z M258.568,329 L258.568,321.224 L257.24,321.224 L257.24,329 L258.568,329 Z M252.664,327.944 L251.72,327.944 L251.72,325.112 L252.664,325.112 C253.976,325.112 254.6,325.544 254.6,326.52 C254.6,327.496 253.976,327.944 252.664,327.944 Z M264.328,329.192 C265.4,329.192 266.232,328.872 266.904,328.392 L266.44,327.544 C265.896,327.912 265.24,328.12 264.488,328.12 C263.016,328.12 262.04,327.064 261.928,325.464 L267.16,325.464 C267.208,325.208 267.224,324.968 267.224,324.68 C267.224,322.44 266.088,321.032 264.104,321.032 C262.328,321.032 260.616,322.584 260.616,325.112 C260.616,327.688 262.248,329.192 264.328,329.192 Z M266.04,324.44 L261.928,324.44 C262.088,322.952 263.048,322.088 264.136,322.088 C265.32,322.088 266.04,322.904 266.04,324.44 Z M273.64,329 L273.64,325.496 L275.32,325.496 L277.352,329 L278.792,329 L276.296,324.904 L276.952,323.384 C277.352,322.488 277.672,322.36 278.072,322.36 C278.184,322.36 278.232,322.376 278.328,322.408 L278.568,321.16 C278.44,321.096 278.28,321.064 278.104,321.064 C277.256,321.064 276.664,321.32 276.04,322.696 L275.272,324.424 L273.64,324.424 L273.64,321.224 L272.328,321.224 L272.328,329 L273.64,329 Z M279.816,329.144 C280.952,329.144 281.656,328.296 281.88,326.6 C282.056,325.176 282.216,323.736 282.392,322.296 L284.792,322.296 L284.792,329 L286.12,329 L286.12,321.224 L281.336,321.224 C281.144,322.904 280.952,324.584 280.744,326.264 C280.6,327.368 280.248,327.864 279.704,327.864 C279.56,327.864 279.448,327.832 279.352,327.8 L279.096,329.016 C279.32,329.112 279.512,329.144 279.816,329.144 Z M290.536,329.192 C291.512,329.192 292.36,328.696 293.096,328.072 L293.144,328.072 L293.272,329 L294.36,329 L294.36,324.216 C294.36,322.296 293.544,321.032 291.656,321.032 C290.408,321.032 289.32,321.56 288.6,322.04 L289.112,322.936 C289.72,322.536 290.536,322.136 291.432,322.136 C292.696,322.136 293.016,323.08 293.032,324.056 C289.704,324.424 288.264,325.256 288.264,326.984 C288.264,328.392 289.24,329.192 290.536,329.192 Z M290.904,328.104 C290.152,328.104 289.56,327.768 289.56,326.904 C289.56,325.896 290.408,325.304 293.032,325 L293.032,327.112 C292.28,327.768 291.656,328.104 290.904,328.104 Z M299.896,329.192 C300.824,329.192 301.704,328.84 302.408,328.2 L301.832,327.352 C301.368,327.768 300.728,328.088 300.008,328.088 C298.584,328.088 297.624,326.904 297.624,325.128 C297.624,323.336 298.648,322.136 300.056,322.136 C300.68,322.136 301.176,322.376 301.608,322.776 L302.264,321.944 C301.72,321.432 301.016,321.032 299.992,321.032 C297.992,321.032 296.248,322.52 296.248,325.128 C296.248,327.704 297.832,329.192 299.896,329.192 Z M306.856,329.192 C307.784,329.192 308.664,328.84 309.368,328.2 L308.792,327.352 C308.328,327.768 307.688,328.088 306.968,328.088 C305.544,328.088 304.584,326.904 304.584,325.128 C304.584,323.336 305.608,322.136 307.016,322.136 C307.64,322.136 308.136,322.376 308.568,322.776 L309.224,321.944 C308.68,321.432 307.976,321.032 306.952,321.032 C304.952,321.032 303.208,322.52 303.208,325.128 C303.208,327.704 304.792,329.192 306.856,329.192 Z M313.496,329 C315.336,329 316.584,328.248 316.584,326.52 C316.584,324.808 315.336,324.088 313.496,324.088 L312.408,324.088 L312.408,321.224 L311.08,321.224 L311.08,329 L313.496,329 Z M319.256,329 L319.256,321.224 L317.928,321.224 L317.928,329 L319.256,329 Z M313.352,327.944 L312.408,327.944 L312.408,325.112 L313.352,325.112 C314.664,325.112 315.288,325.544 315.288,326.52 C315.288,327.496 314.664,327.944 313.352,327.944 Z" id="Линейноразделимыеклассы" fill="#333333" fill-rule="nonzero"></path>
        <path d="M464.896,329.144 C466.176,329.144 466.784,328.424 467.488,325.24 C467.92,323.368 468.256,321.56 468.528,319.64 L471.312,319.64 L471.312,329 L472.656,329 L472.656,318.504 L467.472,318.504 C467.152,320.808 466.768,322.888 466.256,325.08 C465.664,327.544 465.296,327.848 464.72,327.848 C464.56,327.848 464.432,327.816 464.272,327.768 L464,329.016 C464.288,329.112 464.56,329.144 464.896,329.144 Z M476.816,329 L479.584,324.616 C479.888,324.136 480.288,323.432 480.592,322.84 L480.656,322.84 C480.576,323.96 480.528,324.92 480.528,325.752 L480.528,329 L481.792,329 L481.792,321.224 L480.384,321.224 L477.6,325.624 C477.296,326.104 476.896,326.824 476.592,327.384 L476.528,327.384 C476.608,326.28 476.672,325.304 476.672,324.472 L476.672,321.224 L475.392,321.224 L475.392,329 L476.816,329 Z M485.744,329 L485.744,325.544 L489.472,325.544 L489.472,329 L490.8,329 L490.8,321.224 L489.472,321.224 L489.472,324.376 L485.744,324.376 L485.744,321.224 L484.416,321.224 L484.416,329 L485.744,329 Z M496.544,329.192 C497.616,329.192 498.448,328.872 499.12,328.392 L498.656,327.544 C498.112,327.912 497.456,328.12 496.704,328.12 C495.232,328.12 494.256,327.064 494.144,325.464 L499.376,325.464 C499.424,325.208 499.44,324.968 499.44,324.68 C499.44,322.44 498.304,321.032 496.32,321.032 C494.544,321.032 492.832,322.584 492.832,325.112 C492.832,327.688 494.464,329.192 496.544,329.192 Z M498.256,324.44 L494.144,324.44 C494.304,322.952 495.264,322.088 496.352,322.088 C497.536,322.088 498.256,322.904 498.256,324.44 Z M504.592,319.832 C506.384,319.832 507.04,318.632 507.104,317.384 L506.016,317.384 C505.984,318.296 505.648,319.048 504.592,319.048 C503.536,319.048 503.2,318.296 503.168,317.384 L502.08,317.384 C502.144,318.632 502.8,319.832 504.592,319.832 Z M502.768,329 L505.536,324.616 C505.84,324.136 506.24,323.432 506.544,322.84 L506.608,322.84 C506.528,323.96 506.48,324.92 506.48,325.752 L506.48,329 L507.744,329 L507.744,321.224 L506.336,321.224 L503.552,325.624 C503.248,326.104 502.848,326.824 502.544,327.384 L502.48,327.384 C502.56,326.28 502.624,325.304 502.624,324.472 L502.624,321.224 L501.344,321.224 L501.344,329 L502.768,329 Z M511.712,329 L511.712,325.544 L515.44,325.544 L515.44,329 L516.768,329 L516.768,321.224 L515.44,321.224 L515.44,324.376 L511.712,324.376 L511.712,321.224 L510.384,321.224 L510.384,329 L511.712,329 Z M522.4,329.192 C524.304,329.192 526.016,327.704 526.016,325.128 C526.016,322.52 524.304,321.032 522.4,321.032 C520.496,321.032 518.8,322.52 518.8,325.128 C518.8,327.704 520.496,329.192 522.4,329.192 Z M522.4,328.088 C521.072,328.088 520.176,326.904 520.176,325.128 C520.176,323.336 521.072,322.136 522.4,322.136 C523.744,322.136 524.64,323.336 524.64,325.128 C524.64,326.904 523.744,328.088 522.4,328.088 Z M532.576,329 L532.576,325.544 L536.304,325.544 L536.304,329 L537.632,329 L537.632,321.224 L536.304,321.224 L536.304,324.376 L532.576,324.376 L532.576,321.224 L531.248,321.224 L531.248,329 L532.576,329 Z M543.376,329.192 C544.448,329.192 545.28,328.872 545.952,328.392 L545.488,327.544 C544.944,327.912 544.288,328.12 543.536,328.12 C542.064,328.12 541.088,327.064 540.976,325.464 L546.208,325.464 C546.256,325.208 546.272,324.968 546.272,324.68 C546.272,322.44 545.136,321.032 543.152,321.032 C541.376,321.032 539.664,322.584 539.664,325.112 C539.664,327.688 541.296,329.192 543.376,329.192 Z M545.088,324.44 L540.976,324.44 C541.136,322.952 542.096,322.088 543.184,322.088 C544.368,322.088 545.088,322.904 545.088,324.44 Z M549.504,332.28 L549.504,329.656 L549.472,328.296 C550.176,328.856 550.912,329.192 551.616,329.192 C553.392,329.192 554.992,327.64 554.992,325 C554.992,322.584 553.904,321.032 551.904,321.032 C551.008,321.032 550.128,321.528 549.424,322.12 L549.376,322.12 L549.264,321.224 L548.176,321.224 L548.176,332.28 L549.504,332.28 Z M551.392,328.072 C550.88,328.072 550.208,327.864 549.504,327.272 L549.504,323.208 C550.256,322.504 550.912,322.152 551.568,322.152 C553.024,322.152 553.616,323.288 553.616,325 C553.616,326.92 552.672,328.072 551.392,328.072 Z M558.624,329.192 C559.6,329.192 560.448,328.696 561.184,328.072 L561.232,328.072 L561.36,329 L562.448,329 L562.448,324.216 C562.448,322.296 561.632,321.032 559.744,321.032 C558.496,321.032 557.408,321.56 556.688,322.04 L557.2,322.936 C557.808,322.536 558.624,322.136 559.52,322.136 C560.784,322.136 561.104,323.08 561.12,324.056 C557.792,324.424 556.352,325.256 556.352,326.984 C556.352,328.392 557.328,329.192 558.624,329.192 Z M558.992,328.104 C558.24,328.104 557.648,327.768 557.648,326.904 C557.648,325.896 558.496,325.304 561.12,325 L561.12,327.112 C560.368,327.768 559.744,328.104 558.992,328.104 Z M567.12,329.192 C568.8,329.192 570.256,328.296 570.256,326.856 C570.256,325.736 569.552,325.16 568.64,324.92 L568.64,324.856 C569.456,324.536 569.936,323.88 569.936,323.128 C569.936,321.704 568.624,321.032 567.104,321.032 C565.968,321.032 565.12,321.368 564.368,321.896 L564.928,322.76 C565.552,322.312 566.144,322.072 567.04,322.072 C567.984,322.072 568.656,322.456 568.656,323.256 C568.656,323.992 568.032,324.456 566.784,324.456 L565.888,324.456 L565.888,325.464 L566.96,325.464 C568.256,325.464 568.96,325.896 568.96,326.744 C568.96,327.608 568.096,328.152 567.024,328.152 C566.24,328.152 565.472,327.944 564.752,327.352 L564.192,328.2 C565.104,328.952 566.048,329.192 567.12,329.192 Z M572.48,331.752 L572.48,329 L577.792,329 L577.792,331.752 L578.928,331.752 L579.072,328.76 L579.072,327.912 L577.936,327.912 L577.936,321.224 L573.088,321.224 L572.672,324.664 C572.368,327.16 572.016,327.688 571.584,327.912 L571.2,327.912 L571.2,328.76 L571.344,331.752 L572.48,331.752 Z M576.608,327.912 L573.008,327.912 C573.36,327.352 573.664,326.44 573.84,324.92 L574.144,322.296 L576.608,322.296 L576.608,327.912 Z M583.872,329.192 C584.944,329.192 585.776,328.872 586.448,328.392 L585.984,327.544 C585.44,327.912 584.784,328.12 584.032,328.12 C582.56,328.12 581.584,327.064 581.472,325.464 L586.704,325.464 C586.752,325.208 586.768,324.968 586.768,324.68 C586.768,322.44 585.632,321.032 583.648,321.032 C581.872,321.032 580.16,322.584 580.16,325.112 C580.16,327.688 581.792,329.192 583.872,329.192 Z M585.584,324.44 L581.472,324.44 C581.632,322.952 582.592,322.088 583.68,322.088 C584.864,322.088 585.584,322.904 585.584,324.44 Z M588.24,329.144 C589.376,329.144 590.08,328.296 590.304,326.6 C590.48,325.176 590.64,323.736 590.816,322.296 L593.216,322.296 L593.216,329 L594.544,329 L594.544,321.224 L589.76,321.224 C589.568,322.904 589.376,324.584 589.168,326.264 C589.024,327.368 588.672,327.864 588.128,327.864 C587.984,327.864 587.872,327.832 587.776,327.8 L587.52,329.016 C587.744,329.112 587.936,329.144 588.24,329.144 Z M598.592,329 L601.36,324.616 C601.664,324.136 602.064,323.432 602.368,322.84 L602.432,322.84 C602.352,323.96 602.304,324.92 602.304,325.752 L602.304,329 L603.568,329 L603.568,321.224 L602.16,321.224 L599.376,325.624 C599.072,326.104 598.672,326.824 598.368,327.384 L598.304,327.384 C598.384,326.28 598.448,325.304 598.448,324.472 L598.448,321.224 L597.168,321.224 L597.168,329 L598.592,329 Z M607.376,329 L607.376,325.48 C607.376,324.792 607.312,323.608 607.232,322.792 L607.296,322.792 C607.52,323.432 607.776,324.104 608,324.712 L609.456,328.264 L610.448,328.264 L611.888,324.712 C612.112,324.104 612.352,323.432 612.576,322.792 L612.64,322.792 C612.576,323.608 612.496,324.792 612.496,325.48 L612.496,329 L613.696,329 L613.696,321.224 L612.112,321.224 L610.656,324.856 C610.448,325.432 610.224,326.072 610,326.776 L609.936,326.776 C609.744,326.072 609.504,325.432 609.28,324.856 L607.76,321.224 L606.192,321.224 L606.192,329 L607.376,329 Z M618.736,329 C620.576,329 621.824,328.248 621.824,326.52 C621.824,324.808 620.576,324.088 618.736,324.088 L617.648,324.088 L617.648,321.224 L616.32,321.224 L616.32,329 L618.736,329 Z M624.496,329 L624.496,321.224 L623.168,321.224 L623.168,329 L624.496,329 Z M618.592,327.944 L617.648,327.944 L617.648,325.112 L618.592,325.112 C619.904,325.112 620.528,325.544 620.528,326.52 C620.528,327.496 619.904,327.944 618.592,327.944 Z M630.256,329.192 C631.328,329.192 632.16,328.872 632.832,328.392 L632.368,327.544 C631.824,327.912 631.168,328.12 630.416,328.12 C628.944,328.12 627.968,327.064 627.856,325.464 L633.088,325.464 C633.136,325.208 633.152,324.968 633.152,324.68 C633.152,322.44 632.016,321.032 630.032,321.032 C628.256,321.032 626.544,322.584 626.544,325.112 C626.544,327.688 628.176,329.192 630.256,329.192 Z M631.968,324.44 L627.856,324.44 C628.016,322.952 628.976,322.088 630.064,322.088 C631.248,322.088 631.968,322.904 631.968,324.44 Z M639.568,329 L639.568,325.496 L641.248,325.496 L643.28,329 L644.72,329 L642.224,324.904 L642.88,323.384 C643.28,322.488 643.6,322.36 644,322.36 C644.112,322.36 644.16,322.376 644.256,322.408 L644.496,321.16 C644.368,321.096 644.208,321.064 644.032,321.064 C643.184,321.064 642.592,321.32 641.968,322.696 L641.2,324.424 L639.568,324.424 L639.568,321.224 L638.256,321.224 L638.256,329 L639.568,329 Z M645.744,329.144 C646.88,329.144 647.584,328.296 647.808,326.6 C647.984,325.176 648.144,323.736 648.32,322.296 L650.72,322.296 L650.72,329 L652.048,329 L652.048,321.224 L647.264,321.224 C647.072,322.904 646.88,324.584 646.672,326.264 C646.528,327.368 646.176,327.864 645.632,327.864 C645.488,327.864 645.376,327.832 645.28,327.8 L645.024,329.016 C645.248,329.112 645.44,329.144 645.744,329.144 Z M656.464,329.192 C657.44,329.192 658.288,328.696 659.024,328.072 L659.072,328.072 L659.2,329 L660.288,329 L660.288,324.216 C660.288,322.296 659.472,321.032 657.584,321.032 C656.336,321.032 655.248,321.56 654.528,322.04 L655.04,322.936 C655.648,322.536 656.464,322.136 657.36,322.136 C658.624,322.136 658.944,323.08 658.96,324.056 C655.632,324.424 654.192,325.256 654.192,326.984 C654.192,328.392 655.168,329.192 656.464,329.192 Z M656.832,328.104 C656.08,328.104 655.488,327.768 655.488,326.904 C655.488,325.896 656.336,325.304 658.96,325 L658.96,327.112 C658.208,327.768 657.584,328.104 656.832,328.104 Z M665.824,329.192 C666.752,329.192 667.632,328.84 668.336,328.2 L667.76,327.352 C667.296,327.768 666.656,328.088 665.936,328.088 C664.512,328.088 663.552,326.904 663.552,325.128 C663.552,323.336 664.576,322.136 665.984,322.136 C666.608,322.136 667.104,322.376 667.536,322.776 L668.192,321.944 C667.648,321.432 666.944,321.032 665.92,321.032 C663.92,321.032 662.176,322.52 662.176,325.128 C662.176,327.704 663.76,329.192 665.824,329.192 Z M672.784,329.192 C673.712,329.192 674.592,328.84 675.296,328.2 L674.72,327.352 C674.256,327.768 673.616,328.088 672.896,328.088 C671.472,328.088 670.512,326.904 670.512,325.128 C670.512,323.336 671.536,322.136 672.944,322.136 C673.568,322.136 674.064,322.376 674.496,322.776 L675.152,321.944 C674.608,321.432 673.904,321.032 672.88,321.032 C670.88,321.032 669.136,322.52 669.136,325.128 C669.136,327.704 670.72,329.192 672.784,329.192 Z M679.424,329 C681.264,329 682.512,328.248 682.512,326.52 C682.512,324.808 681.264,324.088 679.424,324.088 L678.336,324.088 L678.336,321.224 L677.008,321.224 L677.008,329 L679.424,329 Z M685.184,329 L685.184,321.224 L683.856,321.224 L683.856,329 L685.184,329 Z M679.28,327.944 L678.336,327.944 L678.336,325.112 L679.28,325.112 C680.592,325.112 681.216,325.544 681.216,326.52 C681.216,327.496 680.592,327.944 679.28,327.944 Z" id="Линейнонеразделимыеклассы" fill="#333333" fill-rule="nonzero"></path>
    </g>
</svg>